<svg id="visual" viewBox="0 0 900 300" width="900" height="300" xmlns="http://www.w3.org/2000/svg" xmlns:xlink="http://www.w3.org/1999/xlink" version="1.1"><path d="M746 300L539 300L539 263L602 263L602 225L593 225L593 188L665 188L665 150L620 150L620 113L692 113L692 75L620 75L620 38L656 38L656 0L900 0L900 38L900 38L900 75L900 75L900 113L900 113L900 150L900 150L900 188L900 188L900 225L900 225L900 263L900 263L900 300L900 300Z" fill="#0d324d"></path><path d="M575 300L404 300L404 263L476 263L476 225L494 225L494 188L557 188L557 150L458 150L458 113L602 113L602 75L485 75L485 38L467 38L467 0L657 0L657 38L621 38L621 75L693 75L693 113L621 113L621 150L666 150L666 188L594 188L594 225L603 225L603 263L540 263L540 300L747 300Z" fill="#2e3957"></path><path d="M521 300L341 300L341 263L386 263L386 225L413 225L413 188L440 188L440 150L368 150L368 113L503 113L503 75L404 75L404 38L404 38L404 0L468 0L468 38L486 38L486 75L603 75L603 113L459 113L459 150L558 150L558 188L495 188L495 225L477 225L477 263L405 263L405 300L576 300Z" fill="#48405e"></path><path d="M215 300L188 300L188 263L206 263L206 225L224 225L224 188L188 188L188 150L224 150L224 113L179 113L179 75L251 75L251 38L197 38L197 0L405 0L405 38L405 38L405 75L504 75L504 113L369 113L369 150L441 150L441 188L414 188L414 225L387 225L387 263L342 263L342 300L522 300Z" fill="#5f4863"></path><path d="M80 300L107 300L107 263L89 263L89 225L116 225L116 188L116 188L116 150L62 150L62 113L80 113L80 75L125 75L125 38L98 38L98 0L198 0L198 38L252 38L252 75L180 75L180 113L225 113L225 150L189 150L189 188L225 188L225 225L207 225L207 263L189 263L189 300L216 300Z" fill="#735066"></path><path d="M0 300L0 300L0 263L0 263L0 225L0 225L0 188L0 188L0 150L0 150L0 113L0 113L0 75L0 75L0 38L0 38L0 0L99 0L99 38L126 38L126 75L81 75L81 113L63 113L63 150L117 150L117 188L117 188L117 225L90 225L90 263L108 263L108 300L81 300Z" fill="#855a67"></path></svg>