<svg id="visual" viewBox="0 0 960 300" width="960" height="300" xmlns="http://www.w3.org/2000/svg" xmlns:xlink="http://www.w3.org/1999/xlink" version="1.1"><rect x="0" y="0" width="960" height="300" fill="#002233"></rect><path d="M636 300L629.5 291.7C623 283.3 610 266.7 628.2 250C646.3 233.3 695.7 216.7 686.2 200C676.7 183.3 608.3 166.7 581 150C553.7 133.3 567.3 116.7 576.7 100C586 83.3 591 66.7 582 50C573 33.3 550 16.7 538.5 8.3L527 0L960 0L960 8.3C960 16.7 960 33.3 960 50C960 66.7 960 83.3 960 100C960 116.7 960 133.3 960 150C960 166.7 960 183.3 960 200C960 216.7 960 233.3 960 250C960 266.7 960 283.3 960 291.7L960 300Z" fill="#0066FF" stroke-linecap="round" stroke-linejoin="miter"></path></svg>